<?xml version="1.0" standalone="no"?>
<!DOCTYPE svg PUBLIC "-//W3C//DTD SVG 20010904//EN"
 "http://www.w3.org/TR/2001/REC-SVG-20010904/DTD/svg10.dtd">
<svg version="1.0" xmlns="http://www.w3.org/2000/svg"
 width="78.000000pt" height="61.000000pt" viewBox="0 0 78.000000 61.000000"
 preserveAspectRatio="xMidYMid meet">
<metadata>
Created by potrace 1.16, written by Peter Selinger 2001-2019
</metadata>
<g transform="translate(0.000000,61.000000) scale(0.007565,-0.015522)"
fill="#000000" stroke="none">
<path d="M3639 3832 c-598 -350 -1304 -1115 -1700 -1842 -40 -74 -79 -139 -86
-145 -7 -5 -23 -35 -35 -65 -13 -30 -44 -89 -71 -131 -47 -76 -48 -76 -97 -82
-40 -5 -101 -27 -151 -54 -15 -8 -119 369 -153 557 -19 99 -33 122 -104 170
-41 27 -52 40 -52 61 0 51 9 59 60 59 41 0 52 4 74 30 26 32 42 76 53 148 4
27 13 46 24 53 25 13 25 60 -1 134 -11 32 -20 61 -20 65 0 4 17 11 37 15 133
25 160 84 54 120 -59 19 -60 20 -94 110 -65 168 -110 215 -206 215 -76 0 -325
-52 -384 -80 -77 -37 -82 -49 -84 -235 l-1 -160 -56 -19 c-57 -19 -78 -45 -56
-71 17 -21 75 -45 107 -45 26 0 32 -6 52 -54 12 -29 47 -82 78 -116 45 -49 55
-66 47 -79 -6 -9 -57 -39 -115 -68 -62 -31 -115 -64 -130 -83 -34 -40 -53
-107 -45 -157 4 -24 -3 -84 -19 -163 -13 -69 -36 -219 -50 -335 -16 -127 -34
-228 -45 -255 -10 -25 -24 -76 -30 -113 -7 -37 -14 -67 -17 -67 -2 0 -14 5
-25 11 -12 7 -53 15 -92 20 -39 4 -92 17 -118 28 -56 24 -60 17 -16 -26 39
-37 64 -48 138 -58 60 -8 87 -30 160 -129 66 -90 119 -120 290 -163 35 -9 35
-9 -55 -40 -50 -18 -112 -35 -140 -38 -94 -12 -113 -23 -99 -59 16 -42 117
-24 273 49 115 54 168 66 200 46 11 -7 5 -11 -23 -16 -20 -4 -35 -10 -32 -12
3 -3 26 0 51 6 33 8 57 9 85 1 22 -5 58 -15 80 -20 30 -8 40 -16 40 -30 0 -18
-8 -20 -67 -22 l-68 -1 59 -6 c72 -7 89 -30 24 -33 l-43 -1 38 -4 c32 -4 37
-8 37 -29 0 -18 -6 -24 -22 -25 -17 -1 -19 -2 -5 -6 19 -5 21 -20 8 -57 -7
-18 -22 -27 -53 -35 l-43 -11 43 5 c38 5 42 3 42 -17 0 -29 -9 -41 -40 -56
-25 -11 -25 -11 4 -5 27 5 28 4 23 -18 -3 -13 -9 -43 -13 -66 -4 -24 -10 -43
-14 -43 -4 0 -38 11 -74 25 -83 31 -153 33 -190 4 -14 -11 -26 -25 -26 -31 0
-7 10 -2 23 10 33 32 93 29 183 -9 41 -17 76 -34 78 -37 2 -4 -5 -56 -15 -117
-23 -140 -23 -135 4 -135 21 0 24 10 61 216 67 375 85 503 75 540 -11 37 -27
53 -38 35 -5 -7 -56 7 -158 44 -83 30 -180 61 -216 70 -46 12 -68 23 -76 38
-7 13 -9 15 -7 5 4 -11 0 -18 -9 -18 -16 0 -57 59 -69 98 -5 13 -10 21 -12 19
-3 -3 2 -22 11 -42 26 -64 12 -55 -57 36 -10 12 -20 41 -24 65 -6 43 12 180
25 188 4 3 34 -8 67 -23 153 -73 386 -144 664 -202 111 -23 151 -38 188 -72
33 -30 29 -99 -14 -237 -30 -98 -70 -256 -173 -682 l-19 -78 39 0 c22 0 39 4
39 10 0 5 13 31 28 57 16 26 29 50 29 53 1 22 17 50 31 55 9 3 28 15 42 26
l25 20 -33 -16 c-34 -16 -34 -16 -27 7 9 28 44 98 49 98 2 0 16 -20 29 -43 33
-57 134 -150 231 -215 76 -51 79 -52 149 -51 65 0 70 1 52 14 -63 44 -63 44
-30 46 57 3 78 -3 118 -32 38 -27 46 -29 137 -29 84 0 427 44 439 56 16 15
-25 10 -253 -30 -49 -9 -130 -16 -180 -16 -88 0 -94 1 -136 33 -40 29 -51 32
-115 32 -61 0 -76 4 -117 30 -27 17 -48 34 -48 39 0 4 42 6 93 4 79 -4 104
-10 175 -42 73 -33 93 -37 158 -37 40 0 111 7 156 15 46 9 139 23 208 32 69 9
130 20 135 26 12 12 -25 7 -268 -33 -241 -39 -275 -38 -395 10 -112 45 -155
53 -233 42 -47 -6 -60 -4 -78 10 -12 10 -18 20 -13 23 7 4 127 27 207 40 17 2
-4 3 -45 0 -41 -2 -101 -11 -133 -18 -56 -13 -59 -13 -85 9 -30 26 -30 25 43
45 56 14 326 34 359 26 19 -5 33 -20 49 -54 22 -46 23 -47 72 -50 27 -2 90 3
140 12 49 8 182 26 295 41 304 38 363 49 368 63 6 19 -36 16 -427 -38 -200
-28 -374 -50 -387 -50 -17 0 -25 9 -34 34 -13 41 -35 62 -75 70 -39 8 -298
-19 -382 -40 -60 -15 -66 -15 -81 0 -10 10 -13 19 -7 25 12 11 143 38 273 56
85 11 90 13 42 14 -64 1 -212 -22 -285 -43 -52 -16 -61 -14 -67 19 -3 23 33
34 187 60 l90 15 -75 -5 c-41 -3 -103 -12 -139 -21 -44 -10 -68 -11 -75 -4
-16 16 6 31 66 45 29 8 44 14 33 14 -11 1 -35 -3 -53 -8 -33 -10 -38 -6 -23
18 10 16 298 57 466 67 129 8 173 -2 242 -51 81 -59 124 -77 188 -82 69 -6
304 19 475 48 141 25 179 22 267 -24 103 -53 163 -61 329 -41 156 18 186 15
310 -27 98 -33 188 -40 349 -26 l90 7 71 -149 72 -149 -37 -6 c-67 -11 -78 -8
-89 23 -20 57 -47 65 -200 57 -177 -9 -294 -27 -300 -45 -4 -11 3 -13 34 -8
81 14 350 27 379 19 21 -5 36 -20 48 -45 18 -36 20 -37 75 -37 78 0 534 58
545 69 5 5 6 15 2 21 -8 13 -36 11 -253 -21 -199 -28 -173 -42 -252 124 -38
78 -65 145 -62 148 7 7 97 21 426 69 109 16 206 32 216 35 24 8 32 32 19 57
-10 19 -17 20 -83 15 -39 -4 -170 -22 -291 -41 -121 -19 -245 -37 -276 -41
l-55 -7 -62 165 c-287 768 -449 1833 -441 2902 1 182 1 335 0 342 0 7 -9 17
-19 22 -15 8 -33 2 -83 -27z m67 -360 c4 -811 94 -1590 260 -2257 56 -226 148
-520 216 -689 21 -54 36 -101 33 -105 -4 -3 -75 -6 -158 -6 -145 0 -157 2
-257 33 -102 33 -108 34 -210 26 -58 -5 -152 -9 -210 -8 -100 0 -108 2 -179
37 -107 52 -132 54 -348 18 -229 -37 -382 -53 -434 -45 -22 4 -63 22 -92 40
-86 56 -133 74 -200 81 -72 6 -270 -17 -438 -51 -63 -13 -116 -22 -118 -20 -2
2 33 85 79 186 99 219 111 266 86 332 -30 79 -68 96 -369 167 l-189 44 5 38
c3 21 7 41 10 43 3 3 64 -6 136 -20 72 -14 151 -26 176 -26 43 0 45 -1 39 -25
-10 -39 19 -75 59 -75 39 0 56 12 86 62 12 20 28 38 35 41 25 10 69 98 71 141
3 55 83 242 111 261 22 14 23 13 39 -43 46 -166 63 -187 115 -137 34 32 44 22
35 -38 -7 -51 4 -70 41 -69 45 0 69 46 39 76 -10 9 -15 34 -15 70 0 45 3 56
19 61 11 3 26 16 34 28 8 12 31 39 51 59 43 43 44 52 11 74 -14 9 -25 26 -25
38 0 12 -6 31 -14 41 -13 18 -15 18 -40 1 -27 -17 -66 -14 -66 5 0 6 23 34 51
64 61 64 83 125 73 201 l-6 51 55 31 c92 52 147 138 155 243 l5 67 36 6 c86
14 149 96 173 224 10 55 14 62 34 62 13 0 28 9 34 20 6 11 20 20 31 20 33 0
95 37 127 75 29 36 52 94 52 133 0 11 7 33 16 49 14 24 23 28 59 28 75 0 174
90 191 173 8 40 50 82 82 82 52 0 121 60 162 140 11 22 25 40 30 40 6 0 10 8
10 18 1 10 19 26 50 40 29 14 70 47 102 82 29 32 53 59 53 59 0 1 1 -133 1
-297z m-253 117 c7 -12 0 -30 -26 -71 -60 -94 -152 -146 -176 -100 -6 12 -11
23 -11 26 0 10 185 166 194 163 5 -2 14 -10 19 -18z m-148 -37 c-11 -10 -81
-73 -155 -139 -240 -214 -498 -492 -712 -768 -94 -121 -275 -391 -381 -567
-38 -62 -80 -126 -94 -143 -22 -27 -21 -24 8 35 51 104 193 334 297 480 194
275 356 465 616 725 162 162 419 395 435 395 3 0 -3 -8 -14 -18z m-109 -219
c-29 -82 -95 -162 -147 -178 -28 -9 -89 3 -89 18 0 7 50 60 112 119 90 85 116
104 126 94 10 -10 10 -20 -2 -53z m-1962 -169 c29 -28 111 -220 98 -228 -5 -3
-78 -10 -163 -15 -196 -14 -274 -34 -421 -109 -21 -10 -2 196 23 260 13 32 59
49 223 84 134 28 218 31 240 8z m1686 -76 c0 -101 -44 -170 -130 -207 -47 -20
-51 -21 -75 -5 -25 16 -25 17 -8 38 63 74 197 216 204 216 5 0 9 -19 9 -42z
m-1545 -190 c14 -6 25 -15 25 -19 0 -12 -23 -17 -191 -38 -197 -26 -327 -59
-418 -106 -41 -22 -78 -34 -88 -31 -20 8 -22 6 67 56 67 37 66 48 -2 14 -32
-16 -38 -17 -38 -5 0 13 94 55 191 86 63 20 125 30 249 40 91 7 168 13 172 14
4 0 19 -4 33 -11z m1321 -39 c19 -22 19 -22 -8 -15 -26 6 -27 5 -21 -28 11
-71 -54 -200 -127 -251 -22 -15 -42 -26 -44 -24 -1 2 -10 19 -20 38 -21 44
-34 23 184 283 18 22 13 22 36 -3z m-1339 -126 c7 -32 15 -70 19 -84 5 -24 2
-28 -30 -39 -32 -10 -51 -40 -26 -40 23 0 8 -32 -20 -41 -37 -13 -38 -26 -5
-35 30 -7 31 -19 5 -61 -21 -36 -36 -39 -137 -34 -58 3 -68 -5 -25 -20 28 -10
28 -10 19 -62 -12 -67 -19 -80 -49 -91 -21 -7 -35 -4 -71 17 -56 33 -122 110
-113 133 3 8 10 12 16 9 5 -3 10 1 10 10 0 8 7 18 15 21 8 4 15 12 15 20 0 8
4 14 8 14 4 0 12 15 17 33 9 28 14 32 44 32 19 0 36 5 38 11 2 6 -7 10 -19 10
-17 -1 -29 10 -47 45 -24 45 -24 48 -8 73 14 21 22 24 47 19 32 -6 41 12 19
34 -6 6 -9 21 -7 34 3 22 10 25 88 35 47 6 108 12 135 13 l50 1 12 -57z m-307
14 c0 -8 -17 -25 -37 -38 -51 -34 -60 -67 -33 -124 l21 -44 -30 -45 c-17 -25
-41 -52 -53 -60 -21 -15 -23 -14 -52 32 -46 73 -88 162 -84 178 2 8 5 14 8 13
3 -2 18 9 33 24 31 28 69 43 157 63 73 16 70 16 70 1z m1387 -212 c8 -23 -15
-131 -39 -183 -12 -24 -42 -67 -68 -95 l-47 -51 -33 31 -32 30 62 94 c127 190
143 208 157 174z m-1569 -254 c16 -50 86 -129 137 -152 78 -36 161 -14 196 50
l17 32 35 -34 c30 -31 36 -46 51 -128 22 -126 102 -449 126 -512 11 -28 18
-52 17 -53 -1 -1 -36 14 -77 34 -73 36 -75 38 -73 72 1 25 0 30 -6 16 -13 -34
-23 0 -17 62 5 54 3 52 -10 -8 -6 -25 -6 -25 -19 7 -10 24 -11 54 -5 130 5 54
9 116 8 138 l0 40 -9 -40 c-4 -22 -16 -98 -25 -170 -9 -71 -19 -135 -21 -142
-5 -14 -31 -10 -90 14 -41 17 -48 26 -108 141 -73 138 -113 202 -127 202 -14
0 -2 -30 77 -200 63 -133 78 -158 106 -173 73 -38 357 -165 407 -181 37 -13
52 -23 52 -36 0 -9 3 -32 6 -49 8 -37 30 -39 -186 13 -173 41 -336 91 -367
111 -82 54 -323 538 -323 650 0 35 23 86 49 109 20 18 148 93 162 95 3 1 11
-16 17 -38z m1355 -154 c-9 -77 -23 -115 -66 -179 -48 -70 -77 -128 -77 -152
0 -9 -9 -34 -19 -55 -18 -35 -19 -39 -4 -54 13 -13 14 -19 4 -31 -19 -23 -27
-13 -51 60 -15 45 -29 68 -41 71 -11 3 -19 10 -19 16 0 12 49 100 153 275 l79
134 23 -22 c19 -18 22 -29 18 -63z m-1573 -232 c69 -173 199 -395 266 -454 31
-28 173 -81 215 -81 20 0 30 -10 23 -22 -3 -5 -13 -3 -22 4 -12 11 -12 8 2
-14 22 -34 13 -76 -12 -56 -15 12 -15 11 0 -11 9 -13 14 -30 11 -38 -4 -11
-12 -8 -36 14 l-31 28 32 -39 c36 -46 32 -69 -7 -34 -43 40 -68 54 -33 19 17
-18 32 -34 32 -36 0 -6 -45 8 -58 18 -7 5 -15 7 -18 4 -8 -7 -122 24 -302 85
-123 41 -155 56 -162 73 -10 25 54 634 65 623 2 -2 18 -39 35 -83z m1100 -460
c0 -13 -34 -72 -53 -92 -17 -19 -31 -23 -79 -23 l-58 0 0 39 c0 41 2 43 100
75 21 6 90 7 90 1z m-395 -290 c235 -55 262 -63 292 -89 24 -21 28 -31 27 -78
0 -45 -14 -82 -86 -238 -47 -102 -105 -229 -128 -282 -24 -54 -45 -96 -46 -95
-6 6 23 103 40 135 9 18 14 41 11 51 -3 10 13 66 35 126 23 59 38 110 35 113
-3 3 -5 -1 -5 -8 0 -7 -2 -11 -5 -8 -3 3 2 34 11 68 20 78 14 147 -15 188 -32
46 -125 87 -238 107 -124 21 -124 21 -117 40 4 9 12 14 18 12 6 -2 83 -21 171
-42z"/>
<path d="M6395 2872 l-50 -17 56 -5 c90 -8 113 -46 63 -105 l-25 -30 16 32
c20 43 19 59 -7 77 -50 36 -161 9 -181 -43 -6 -16 -21 -35 -33 -42 -26 -14
-58 -74 -50 -94 5 -15 -17 -39 -27 -29 -9 9 -56 -91 -73 -155 -14 -55 -13 -62
6 -112 19 -51 77 -135 87 -125 2 2 -4 33 -15 68 -26 84 -36 166 -26 220 7 42
8 42 14 13 4 -16 2 -38 -3 -49 -9 -19 8 -102 23 -111 5 -3 6 -14 3 -24 -3 -13
8 -34 34 -63 22 -24 42 -50 46 -59 3 -9 35 -32 71 -52 59 -33 118 -49 221 -60
l30 -3 -27 -11 c-61 -27 -40 -48 111 -108 62 -25 132 -58 156 -75 24 -16 48
-30 53 -30 5 0 17 -11 26 -25 9 -14 23 -25 31 -25 10 0 15 -10 15 -27 0 -16 6
-39 13 -53 12 -23 10 -28 -36 -72 -27 -27 -53 -48 -57 -48 -8 0 -70 -94 -70
-105 0 -33 126 70 136 112 7 28 24 31 24 3 0 -11 -5 -20 -11 -20 -5 0 -19 -20
-30 -45 -11 -25 -25 -45 -32 -45 -7 0 -23 -16 -37 -35 -14 -19 -31 -35 -39
-35 -8 0 -29 -11 -47 -25 -18 -14 -40 -25 -49 -25 -9 0 -26 -5 -37 -11 -11 -6
-39 -13 -62 -15 -89 -8 -136 -16 -131 -24 3 -4 -5 -10 -16 -13 -22 -6 -17 -27
6 -27 8 0 12 -6 9 -14 -10 -25 89 -39 187 -26 46 5 86 15 87 20 2 6 12 10 23
10 26 0 91 27 104 43 6 7 28 22 50 33 22 12 45 29 50 40 6 11 29 38 53 62 23
23 42 51 42 62 0 12 10 34 22 51 19 26 22 42 22 133 1 93 -1 107 -20 128 -12
13 -24 36 -28 52 -9 36 -88 117 -142 144 -62 31 -155 52 -234 52 -50 0 -69 3
-64 11 3 6 0 15 -7 20 -11 6 -8 9 8 9 12 0 25 5 28 10 4 6 -7 10 -27 10 -24 0
-29 3 -18 10 21 13 13 17 -60 31 -113 21 -207 80 -226 142 -3 12 -10 27 -14
32 -13 17 -14 108 -1 139 6 16 10 34 8 39 -2 6 7 20 20 33 13 13 23 29 23 36
0 14 36 38 114 75 52 25 147 42 231 43 28 0 57 4 65 10 26 17 -8 58 -78 92
-56 28 -77 33 -156 35 -67 2 -104 -2 -141 -15z"/>
<path d="M7313 2873 c-18 -9 -33 -20 -33 -25 0 -4 37 -8 82 -8 45 0 78 -3 74
-7 -4 -5 -20 -9 -34 -10 -65 -5 -92 -11 -107 -23 -8 -7 -18 -10 -22 -7 -3 4
-18 0 -32 -7 -14 -7 -53 -26 -86 -42 -54 -26 -60 -32 -62 -61 -1 -25 2 -30 15
-26 11 5 13 3 7 -7 -6 -10 0 -11 26 -7 80 13 155 30 164 36 13 9 237 7 252 -2
18 -11 164 -29 213 -25 42 3 45 5 48 34 3 26 -4 37 -39 67 -40 35 -81 58 -127
72 l-22 6 25 -37 c29 -43 30 -53 11 -80 -13 -17 -14 -16 -9 21 6 52 -26 98
-66 93 -14 -1 -32 1 -39 6 -7 4 -26 5 -42 1 -17 -4 -30 -3 -30 2 0 11 -98 53
-120 52 -8 0 -30 -8 -47 -16z"/>
<path d="M4637 2866 c-49 -18 -104 -61 -113 -88 -10 -34 31 -61 141 -92 54
-15 100 -24 103 -21 3 2 -2 13 -11 23 -9 10 -23 33 -31 52 -12 30 -12 40 -1
67 7 17 23 36 34 43 19 10 19 8 -4 -26 -31 -46 -31 -48 1 -112 25 -51 32 -56
66 -53 9 1 19 -3 23 -9 3 -5 17 -10 31 -10 22 0 24 -3 18 -27 -4 -16 -11 -35
-15 -44 -9 -18 13 -30 39 -22 14 5 17 53 2 53 -5 0 -10 5 -10 10 0 6 7 10 15
10 8 0 15 -7 15 -15 0 -8 6 -15 14 -15 7 0 16 -11 18 -24 6 -32 -2 -87 -13
-81 -4 3 -13 -4 -19 -15 -6 -11 -17 -20 -24 -20 -7 0 -23 -11 -36 -26 -19 -19
-21 -27 -11 -33 10 -7 9 -9 -3 -14 -23 -9 -20 -27 5 -27 14 0 19 -5 16 -14 -3
-8 1 -17 9 -20 18 -7 75 4 94 18 8 6 33 20 54 31 22 11 41 28 44 37 2 10 8 18
12 18 13 0 43 53 46 80 1 14 6 42 10 64 6 31 4 40 -9 48 -10 5 -17 21 -17 36
0 32 -25 72 -46 72 -8 0 -14 6 -14 14 0 20 -50 66 -72 66 -11 0 -29 12 -40 26
-14 18 -27 24 -41 20 -11 -3 -30 3 -43 13 -30 23 -179 28 -237 7z"/>
<path d="M5692 2859 c-18 -5 -36 -17 -39 -25 -7 -19 76 -184 93 -184 13 0 29
141 22 190 -3 28 -25 34 -76 19z"/>
<path d="M9493 2843 c-21 -8 -15 -40 28 -146 61 -152 87 -207 100 -207 6 0 8
-8 4 -21 -4 -13 -1 -27 10 -39 16 -18 16 -22 2 -52 -41 -90 -45 -160 -11 -189
25 -21 35 7 32 88 -2 45 0 69 6 63 5 -5 10 -22 12 -37 1 -15 5 -48 9 -73 13
-98 14 -119 14 -222 0 -90 3 -108 16 -108 8 0 15 -7 15 -15 0 -22 15 -18 28 8
10 21 11 21 12 2 2 -32 38 44 46 96 15 101 25 250 16 263 -3 6 -5 25 -3 43 1
18 -1 38 -5 45 -4 7 -7 29 -5 49 1 20 -2 40 -8 44 -6 3 -11 21 -11 39 0 19 -7
39 -15 46 -9 7 -13 21 -10 31 9 28 -48 138 -98 191 -71 73 -147 115 -184 101z"/>
<path d="M7996 2818 c-8 -13 -19 -50 -25 -82 -13 -72 -15 -307 -2 -287 5 8 7
-4 4 -33 -3 -27 -1 -51 6 -59 6 -8 8 -27 5 -45 -4 -19 0 -42 9 -61 12 -24 13
-34 3 -44 -6 -6 -22 -49 -34 -94 l-21 -83 20 -65 c11 -36 24 -63 29 -60 6 4
10 58 10 121 0 79 3 113 11 109 5 -4 7 -19 4 -34 -3 -15 -1 -41 5 -57 6 -16
13 -49 16 -74 9 -104 12 -128 18 -148 4 -12 9 -45 12 -74 9 -101 23 -187 31
-202 3 -4 9 -3 13 4 6 9 10 6 15 -9 8 -26 25 -28 25 -1 0 12 5 17 14 14 10 -4
15 7 19 43 7 54 4 290 -3 297 -3 2 -4 52 -4 110 1 59 -2 109 -7 111 -4 3 -5
27 -2 54 3 29 1 51 -5 55 -6 3 -8 23 -5 46 3 21 2 47 -2 57 -4 10 -8 59 -10
108 -3 104 -41 261 -83 345 -31 62 -45 70 -66 38z"/>
<path d="M8410 2810 c12 -7 8 -10 -14 -10 -27 0 -28 -1 -14 -17 9 -10 14 -22
12 -28 -4 -10 57 -55 74 -55 4 0 27 -21 51 -46 46 -49 74 -104 74 -144 0 -36
-14 -80 -24 -80 -5 0 -9 -6 -9 -12 0 -13 -131 -58 -224 -78 -93 -20 -107 -41
-56 -84 67 -56 213 -73 298 -35 55 25 142 111 142 140 0 11 8 23 18 26 26 10
39 31 63 102 26 77 18 116 -35 177 -40 44 -42 39 -21 -43 8 -31 15 -68 15 -82
0 -22 -2 -21 -20 13 -10 22 -17 43 -14 47 2 4 -9 23 -26 42 -16 19 -30 40 -30
46 0 6 -16 21 -35 32 -19 12 -35 25 -35 30 0 16 -128 69 -167 69 -28 0 -34 -3
-23 -10z"/>
<path d="M9180 2810 c-50 -31 -140 -117 -140 -133 0 -7 -9 -18 -20 -25 -11 -7
-20 -19 -20 -28 0 -9 -9 -27 -20 -41 -11 -14 -17 -30 -14 -35 3 -5 -2 -18 -11
-28 -10 -11 -15 -28 -12 -39 3 -11 -2 -26 -10 -33 -9 -7 -13 -22 -9 -38 3 -15
0 -32 -7 -39 -19 -19 -12 -139 12 -202 37 -98 79 -114 117 -46 34 60 63 220
43 233 -6 3 -5 11 2 20 6 8 8 25 5 39 -5 18 -2 25 9 25 8 0 33 12 54 28 35 23
40 32 41 65 0 50 -15 45 -59 -19 l-33 -49 6 35 c8 38 37 103 49 108 4 2 7 9 7
16 0 15 26 49 67 88 33 31 44 88 16 88 -7 0 -13 5 -13 10 0 13 -40 13 -60 0z"/>
<path d="M4402 2758 c-35 -44 -65 -156 -78 -285 -7 -78 4 -96 26 -43 15 37 55
70 84 70 27 0 62 -24 77 -53 11 -19 8 -18 -20 6 -52 43 -81 36 -134 -34 -28
-38 -36 -96 -16 -116 8 -8 8 -17 0 -32 -9 -16 -8 -29 4 -57 14 -33 13 -37 -4
-52 -10 -10 -31 -48 -46 -86 -27 -65 -28 -72 -17 -124 25 -118 53 -92 60 53 4
94 6 105 19 92 11 -11 12 -20 5 -33 -7 -14 -6 -31 4 -59 7 -22 9 -44 5 -48 -5
-5 -5 -23 1 -41 5 -17 11 -56 13 -86 3 -30 7 -75 9 -100 3 -25 7 -70 9 -100 5
-62 21 -110 37 -110 5 0 10 8 11 18 0 11 4 7 11 -11 12 -32 28 -27 29 11 1 17
3 21 6 10 5 -20 19 -23 29 -7 4 6 8 45 10 86 1 42 6 88 9 103 3 16 2 31 -3 34
-6 3 -5 21 1 46 8 28 8 43 1 50 -8 8 -8 23 0 51 8 29 7 45 -2 59 -7 12 -8 21
-2 25 13 8 13 72 0 80 -7 4 -7 12 0 25 13 25 13 73 -1 87 -8 8 -8 13 0 17 15
9 14 69 -1 84 -8 8 -8 15 0 24 15 19 13 129 -4 213 -38 182 -93 281 -132 233z"/>
<path d="M7470 2631 c-12 -24 -14 -318 -1 -325 4 -3 6 -16 4 -30 -3 -13 1 -34
8 -47 7 -13 12 -39 10 -57 -1 -18 3 -40 10 -48 9 -11 9 -18 -3 -32 -26 -30
-51 -136 -44 -184 15 -96 46 -86 46 16 0 78 19 62 25 -20 2 -32 6 -88 9 -124
3 -36 5 -87 6 -115 3 -101 12 -155 26 -155 8 0 14 -4 14 -10 0 -5 5 -10 10
-10 6 0 10 7 10 15 0 8 6 12 14 9 21 -8 25 24 40 334 2 34 0 65 -4 67 -5 3 -4
22 0 42 5 20 6 41 3 46 -3 6 -7 51 -9 101 -7 235 -21 311 -81 445 -23 54 -58
101 -74 101 -5 0 -13 -9 -19 -19z"/>
<path d="M5740 2590 c0 -26 -3 -31 -10 -20 -5 8 -11 12 -14 10 -7 -8 -9 -115
-6 -325 2 -104 0 -200 -4 -213 -4 -13 -3 -29 3 -36 7 -8 7 -24 -1 -50 -9 -28
-9 -42 0 -56 8 -14 8 -26 -1 -49 -8 -23 -8 -39 -1 -60 8 -19 8 -34 1 -46 -13
-25 -3 -228 18 -334 20 -101 49 -164 73 -159 9 2 25 20 35 40 33 67 83 369 59
354 -7 -4 -8 4 -2 23 9 31 4 67 -12 88 -5 7 -5 14 2 18 13 8 13 61 -1 87 -9
17 -8 24 3 32 8 6 28 50 43 98 28 84 28 89 14 149 -27 117 -48 75 -49 -96 -1
-79 -2 -88 -15 -72 -10 14 -11 25 -4 41 7 16 6 34 -4 63 -9 28 -11 45 -4 52 6
6 5 25 -5 55 -8 25 -11 49 -7 53 5 5 4 25 -1 44 -6 20 -12 60 -15 90 -10 106
-14 134 -26 177 -12 42 -29 66 -29 40 0 -7 -9 -2 -20 12 l-20 25 0 -35z"/>
<path d="M6772 2219 c-51 -28 -90 -55 -87 -60 8 -12 177 -12 209 1 17 6 26 17
26 30 0 29 -28 80 -43 80 -6 0 -54 -23 -105 -51z"/>
<path d="M4708 2174 c-11 -10 -10 -106 1 -123 10 -15 39 -13 149 15 39 10 72
23 72 30 0 13 -138 73 -185 81 -16 3 -33 1 -37 -3z"/>
<path d="M5000 2105 c25 -14 25 -14 -15 -15 l-40 0 24 -19 c17 -13 20 -20 12
-26 -8 -5 5 -19 38 -41 28 -19 54 -34 58 -34 15 0 92 -80 99 -103 4 -12 10
-24 15 -27 8 -5 11 -66 7 -125 -1 -16 -10 -36 -20 -43 -10 -7 -18 -24 -18 -36
0 -17 -7 -26 -25 -30 -15 -4 -27 -16 -31 -31 -3 -14 -12 -25 -20 -25 -17 0
-364 -168 -386 -188 -28 -24 -21 -40 25 -64 79 -41 263 -36 366 10 l36 17 -40
3 c-59 4 -82 10 -99 28 -20 20 -20 66 -1 104 19 37 28 39 15 4 -28 -73 0 -115
84 -122 63 -5 113 16 122 53 4 15 15 26 33 30 27 6 61 49 61 78 0 16 26 30 40
22 12 -7 93 91 120 144 18 36 21 55 17 99 -6 54 -43 143 -62 149 -6 2 -10 -39
-10 -109 0 -85 -5 -128 -20 -173 -18 -56 -20 -58 -23 -27 -2 21 3 38 13 49 14
13 16 26 10 62 -3 25 -6 62 -6 82 1 23 -8 49 -24 73 -14 21 -23 41 -20 46 7
12 -51 77 -75 85 -11 3 -19 12 -17 18 1 6 -18 22 -43 34 -25 12 -50 26 -55 31
-20 17 -79 32 -124 32 -45 -1 -45 -1 -21 -15z"/>
<path d="M8390 1901 c0 -14 -4 -20 -11 -15 -8 4 -10 -7 -6 -37 9 -72 19 -109
28 -109 5 0 9 -13 9 -30 0 -16 5 -30 10 -30 6 0 10 -7 10 -16 0 -14 13 -44 41
-94 5 -8 15 -30 23 -47 8 -18 20 -33 25 -33 6 0 11 -9 11 -20 0 -11 9 -25 20
-32 11 -7 20 -19 20 -26 0 -22 81 -93 134 -118 78 -36 186 -30 186 11 0 8 -19
36 -42 63 -24 27 -63 72 -87 100 -25 29 -51 52 -58 52 -7 0 -13 7 -13 15 0 8
-8 20 -18 26 -15 9 -17 22 -14 76 4 56 2 67 -19 89 -47 50 -63 21 -29 -55 23
-49 23 -51 11 -51 -5 0 -12 8 -15 18 -8 22 -28 55 -46 77 -16 19 -27 39 -64
110 -35 68 -52 89 -69 82 -8 -3 -20 0 -26 6 -8 8 -11 5 -11 -12z"/>
<path d="M9055 1828 c-4 -10 -14 -18 -22 -18 -13 0 -15 -12 -9 -77 4 -43 11
-82 17 -87 5 -6 9 -22 9 -37 0 -15 7 -34 15 -43 8 -8 15 -26 15 -40 0 -13 6
-31 13 -38 7 -7 19 -28 26 -45 7 -18 19 -33 25 -33 6 0 19 -14 28 -30 10 -17
25 -33 35 -37 10 -3 33 -20 52 -36 27 -23 40 -28 64 -23 16 3 36 1 43 -5 13
-11 25 -10 106 7 64 14 145 114 168 206 29 113 -18 129 -125 43 -62 -51 -135
-84 -170 -78 -30 5 -31 6 -33 66 -2 53 -6 65 -28 85 -52 45 -58 -10 -10 -81
19 -28 22 -37 11 -37 -8 0 -15 7 -15 15 0 8 -11 22 -25 31 -14 9 -23 20 -20
24 2 4 -4 15 -15 25 -11 10 -20 23 -20 28 0 6 -12 35 -26 65 -14 29 -27 62
-29 72 -6 32 -38 86 -43 72 -3 -10 -8 -8 -17 5 -13 17 -14 17 -20 1z"/>
<path d="M8126 1478 c-2 -7 -17 -51 -32 -96 l-28 -84 24 -18 c33 -25 70 -34
84 -20 14 14 10 110 -7 174 -13 49 -33 71 -41 44z"/>
<path d="M6201 1444 c-18 -26 -22 -40 -15 -52 14 -22 78 -42 157 -49 74 -6 85
3 40 32 -16 10 -51 38 -79 62 -28 23 -57 43 -65 43 -8 0 -25 -16 -38 -36z"/>
<path d="M4436 1387 c-16 -46 -26 -91 -23 -100 8 -21 88 -33 116 -18 11 7 21
20 21 31 0 30 -57 165 -72 168 -8 2 -24 -28 -42 -81z"/>
<path d="M3326 179 c-73 -10 -157 -30 -301 -74 -70 -21 -111 -27 -185 -27 -71
-1 -89 -3 -70 -10 50 -19 198 -3 327 35 110 33 263 57 358 57 38 0 67 -23 59
-45 -7 -17 8 -19 69 -9 51 9 50 34 -2 27 -32 -4 -39 -2 -43 15 -10 38 -79 48
-212 31z"/>
</g>
</svg>
